<?xml version="1.0" encoding="UTF-8"?>
<svg width="22.621mm" height="11.41mm" version="1.1" viewBox="0 0 22.621 11.41" xmlns="http://www.w3.org/2000/svg">
 <g transform="translate(-111.91 -73.67)">
  <g fill="#790099">
   <path d="m116.46 74.628q-0.38561 0.21464-0.69496 0.5431-0.31025 0.32078-0.53055 0.75335-0.13683 0.25554-0.24354 0.53005t-0.1988 0.55466q0.10863-0.02416 0.21999-0.02526 0.11046-0.0086 0.21089 0.0152 0.0995 0.01641 0.1762 0.07533 0.0827 0.05024 0.13653 0.15178 0.0548 0.10924 0.0325 0.21442-0.0232 0.09748-0.0853 0.16164-0.062 0.06415-0.15106 0.07754-0.0899 0.0057-0.16846-0.06866l-0.0397-0.04101q-0.11596-0.03739-0.27067 0.0093-0.15474 0.04671-0.26927 0.07964l-0.16731 0.52643q-0.093 0.27245-0.20655 0.54799-0.10581 0.28221-0.24947 0.53878-0.13592 0.26324-0.31841 0.48648-0.17564 0.22222-0.40929 0.367-0.20718 0.13297-0.45364 0.17005-0.23871 0.04371-0.47061-0.03108-0.079-0.01948-0.17715-0.08303-0.0904-0.05692-0.15615-0.141-0.058-0.07743-0.0621-0.1708 3e-3 -0.09439 0.10901-0.19654 0.0945-0.08469 0.19672-0.04521 0.10317 0.04716 0.21136 0.07786 0.10041 0.02409 0.18349 0.01948 0.0831-0.0047 0.17709-0.03443 0.1351-0.03594 0.22544-0.09657 0.0972-0.0616 0.20259-0.17144 0.27193-0.29152 0.45298-0.70252 0.18105-0.41101 0.3283-0.87176-0.21267 0.08681-0.4235 0.189-0.20399 0.10116-0.3888 0.24644-0.0511 0.03901-0.11087 0.06365-0.0598 0.02463-0.10865 0.02416-0.0488-4.76e-4 -0.0886-0.0415-0.0329-0.04203-0.0379-0.1431-2e-3 -0.07799 0.0324-0.138 0.0338-0.06775 0.083-0.12212 0.0561-0.05541 0.11407-0.09546 0.0648-0.04108 0.11591-0.08009 0.22999-0.17555 0.486-0.30804 0.2551-0.14015 0.51478-0.24187l0.1705-0.55823q0.11808-0.35455 0.26538-0.69782 0.1473-0.34328 0.37816-0.62862 0.19435-0.2407 0.41839-0.40753-0.0735 0.02668-0.14194 0.03697-0.0616 0.0092-0.12917 0.02723-0.34048 0.06683-0.6828 0.11831-0.33638 0.04277-0.66635 0.13936-0.3035 0.08481-0.5006 0.3024-0.19709 0.21762-0.34305 0.51369-0.0844 0.16934-0.2295 0.23815-0.13829 0.06776-0.27385 0.04117-0.12871-0.02763-0.21961-0.14713-0.0849-0.1282-0.0549-0.3442 0.025-0.19957 0.13085-0.3643 0.10582-0.16473 0.25139-0.28843 0.15148-0.13242 0.32216-0.22074 0.17067-0.08833 0.32448-0.14278 0.36054-0.13252 0.72749-0.21121 0.36603-0.08636 0.74166-0.15067 0.37472-0.07198 0.74258-0.14297 0.37472-0.07198 0.73709-0.18914 0.0707-0.0498 0.1629-0.09499 0.099-0.04621 0.16475-0.07959 0.0529-0.02359 0.12732-0.0426 0.0735-0.02668 0.16247-0.04006 0.17115-0.02573 0.30446 0.04037 0.13239 0.0584 0.0877 0.26877-0.0232 0.09748-0.0981 0.17139-0.0757 0.06621-0.17387 0.12014-0.099 0.04621-0.20582 0.08577-0.10087 0.03079-0.16841 0.04878z"/>
   <path d="m116.66 78.545q-0.0817-0.04253-0.16117-0.12459-0.0854-0.07331-0.14202-0.19795-0.0566-0.12461-0.0709-0.30264-0.022-0.18466 0.0182-0.4335 0.0442-0.27294 0.14812-0.57053 0.10395-0.2976 0.20381-0.57107 0.0757-0.1837 0.14864-0.39047 0.073-0.20677 0.0706-0.28475-0.0146-0.12311 0.0506-0.21907t0.16794-0.1114q0.10953-0.0164 0.19494 0.05685 0.0845 0.06564 0.10597 0.18771 0.0201 0.16929-0.05 0.39914-0.0702 0.22985-0.20791 0.59519-0.0629 0.17393-0.14679 0.40586-0.0848 0.22424-0.14314 0.43664-0.0515 0.21137-0.0587 0.38478-1e-3 0.16466 0.0873 0.20618 0.0146 0.0057 0.0488 4.76e-4 0.0411-6e-3 0.099-0.04621 0.0579-0.04005 0.13871-0.12268 0.0876-0.08368 0.19619-0.22529 0.10859-0.14166 0.20848-0.29764 0.099-0.16369 0.17925-0.30892 0.0862-0.15393 0.1487-0.27299 0.0625-0.11905 0.0953-0.19447 0.0506-0.10161 0.10951-0.13395 0.0657-0.03333 0.11729-0.0098 0.0507 0.01571 0.0658 0.0841 0.0219 0.06721-0.0287 0.1688-0.0287 0.05131-0.0967 0.24167-0.0679 0.19037-0.17829 0.43409-0.11038 0.24373-0.25313 0.508-0.14366 0.25657-0.31615 0.44698-0.1647 0.19708-0.35683 0.28079-0.19212 0.0837-0.39255-0.01926zm1.0953-3.9712q0.0184 0.15392-0.0647 0.27603-0.0771 0.11342-0.21402 0.13401-0.13692 0.02065-0.24468-0.06505-0.10182-0.09434-0.12014-0.24824-0.0184-0.15392 0.0588-0.2673 0.083-0.12212 0.21996-0.14271 0.13694-0.02065 0.23875 0.07375 0.10774 0.0856 0.12607 0.23951z"/>
   <path d="m117.99 76.543q0.0757-0.1837 0.14772-0.39816 0.072-0.21447 0.12946-0.43458 0.0574-0.22011 0.0884-0.4284 0.0378-0.20933 0.04-0.3663 1e-3 -0.16466 0.0812-0.255 0.0789-0.09802 0.16382-0.08729 0.0908 0.0019 0.14657 0.11893 0.0548 0.10924 7e-3 0.35141 0.2374 0.12095 0.40271 0.3389 0.17216 0.21692 0.26767 0.49236 0.0955 0.27544 0.12528 0.58425 0.0289 0.30112-7e-3 0.58842-0.01 0.09541-0.0269 0.18419-0.0182 0.08106-0.0424 0.17084 0.31942-0.24383 0.53793-0.57431 0.21759-0.33817 0.36171-0.64964 0.0388-0.08415 0.0976-0.11651 0.0657-0.03333 0.11729-0.0098 0.0507 0.01572 0.0717 0.07538 0.021 0.05951-0.0177 0.14366-0.18197 0.40331-0.37718 0.75379-0.19524 0.35048-0.42107 0.6194-0.22583 0.26893-0.49096 0.44194-0.26513 0.173-0.58006 0.22036-0.32862 0.04941-0.55368-0.0264-0.21821-0.07683-0.28994-0.2697-0.0411-0.11132-0.0118-0.2175 0.0223-0.10515 0.10401-0.18011 0.22814-0.19095 0.58656 0.06847 0.089-0.0133 0.16474-0.07959 0.0748-0.07391 0.12545-0.17551 0.0506-0.10161 0.0857-0.21654 0.0342-0.12263 0.0478-0.24216 0.025-0.19957 8e-3 -0.40066-0.018-0.20879-0.075-0.396-0.0503-0.18823-0.14392-0.33082-0.0945-0.15026-0.2306-0.23946-0.0511 0.15649-0.10806 0.3217-0.0502 0.16419-0.10213 0.31299-0.0529 0.14109-0.10168 0.25809-0.0429 0.10826-0.0716 0.1596-0.0447 0.09289-0.10951 0.13394-0.0657 0.03333-0.11637 0.0176-0.0507-0.01572-0.0649-0.0764-0.0151-0.06823 0.0337-0.18522z"/>
   <path d="m120.57 77.958q-0.0817-0.04253-0.16117-0.12459-0.0854-0.07331-0.14202-0.19795-0.0566-0.12461-0.0709-0.30264-0.022-0.18466 0.0182-0.4335 0.0442-0.27294 0.14812-0.57054 0.10396-0.29759 0.20382-0.57108 0.0757-0.1837 0.14864-0.39046 0.073-0.20677 0.0706-0.28475-0.0146-0.12311 0.0506-0.2191 0.0652-0.09596 0.16793-0.1114 0.10954-0.01641 0.19492 0.05685 0.0845 0.0656 0.10597 0.18771 0.02 0.16928-0.0501 0.39914-0.0702 0.22985-0.20791 0.59519-0.0629 0.17394-0.14682 0.40586-0.0848 0.22424-0.14314 0.43664-0.0515 0.21138-0.0587 0.38478-1e-3 0.16466 0.0873 0.20619 0.0146 0.0057 0.0488 4.76e-4 0.0411-6e-3 0.099-0.04621 0.0579-0.04005 0.13871-0.12266 0.0876-0.08368 0.19619-0.22529 0.10859-0.14166 0.20848-0.29764 0.099-0.16371 0.17925-0.30892 0.0862-0.15393 0.14871-0.27299 0.0625-0.11905 0.0953-0.19447 0.0506-0.10161 0.1095-0.13395 0.0657-0.03333 0.1173-0.0098 0.0507 0.01572 0.0658 0.0841 0.0219 0.06721-0.0287 0.16878-0.0287 0.0513-0.0967 0.24167-0.0679 0.19037-0.1783 0.43409-0.11035 0.24373-0.25313 0.508-0.14366 0.25658-0.31614 0.44698-0.1647 0.19708-0.35683 0.28079-0.19212 0.0837-0.39255-0.01925zm1.0953-3.9712q0.0184 0.15392-0.0647 0.27603-0.0771 0.11342-0.21402 0.134-0.13695 0.02065-0.24468-0.06503-0.10181-0.09434-0.12013-0.24824-0.0184-0.15392 0.0588-0.2673 0.083-0.12212 0.21996-0.14271 0.13691-0.02065 0.23875 0.07376 0.10773 0.0856 0.12606 0.23951z"/>
   <path d="m122.63 77.749q-0.2533 0.03809-0.45647-0.08802-0.28306-0.15326-0.37996-0.49897-0.0969-0.34572-1e-3 -0.83004 0.0642-0.33862 0.21746-0.69061 0.15231-0.35969 0.36079-0.65733 0.41788-0.5876 0.87793-0.70376 7e-3 -1e-3 6e-3 -0.0086 0.10447-0.11751 0.24006-0.0909 0.38526 0.07521 0.54836 0.45015 0.15201 0.04764 0.31315 0.05474 0.16795 6e-3 0.32451-0.02535 0.15656-0.03136 0.2889-0.09042 0.13917-0.06009 0.22588-0.15145 0.062-0.06415 0.11865-0.05702 0.0634 6e-3 0.0904 0.05692 0.026 0.04307 0.0146 0.12311-5e-3 0.07132-0.0675 0.13549-0.13004 0.13703-0.2998 0.23304-0.16382 0.08729-0.33817 0.14483-0.17435 0.05756-0.3455 0.08329t-0.31767 0.02431q6e-3 0.34371-0.065 0.68335-0.0642 0.33861-0.18095 0.64596-0.11764 0.29965-0.27593 0.55059t-0.33442 0.41057q-0.27651 0.25305-0.56405 0.29629zm0.67574-3.0466q-0.14878 0.03801-0.30847 0.2187-0.15376 0.17194-0.29151 0.41978-0.13773 0.24784-0.24855 0.54647-0.10396 0.29759-0.15497 0.57156-0.0151 0.04925-0.0314 0.1457-0.01 0.09541-0.0105 0.2052 5e-3 0.10107 0.0306 0.19903 0.0315 0.08926 0.1064 0.13281 0.20136 0.11069 0.471-0.14131 0.17019-0.15091 0.31571-0.39209 0.14458-0.24887 0.25221-0.51569 0.10671-0.27451 0.15865-0.54078 0.0588-0.2673 0.0341-0.47506-0.0827-0.05024-0.17671-0.13791-0.0941-0.08769-0.14661-0.23642z"/>
  </g>
  <path d="m117.45 83.306q9e-3 0.19994 0.0647 0.29784 0.0605 0.0974 0.17749 0.04013 0.0534-0.02815 0.10685-0.05629 0.0534-0.02815 0.10906-0.03356 0.11182-0.0051 0.15781 0.04778 0.046 0.05291 0.0425 0.12211-3e-3 0.07487-0.0519 0.1485-0.0434 0.07883-0.11594 0.1203-0.13499 0.08198-0.27772 0.08437-0.13711 0.0076-0.26006-0.04932-0.1179-0.05741-0.20648-0.18077-0.083-0.11818-0.1102-0.29341-0.03-0.20366-0.0246-0.41076 5e-3 -0.2071 0.0367-0.41097 0.0357-0.21005 0.0827-0.40971 0.052-0.20016 0.10515-0.38894 0.0311-0.10056 0.0622-0.20114 0.0356-0.10674 0.0717-0.2078-0.21911 0.31968-0.44437 0.62848-0.22583 0.30312-0.46737 0.60202 0.12186 0.04554 0.21897 0.09922 0.0483 0.024 0.11955 0.07446 0.0707 0.04476 0.0779 0.11867 0.0134 0.08478-0.0491 0.12527-0.063 0.03481-0.12423 0.03503-0.12248 4.49e-4 -0.24489-0.05079-0.12296-0.05691-0.24987-0.10196-0.0687 0.08129-0.13737 0.16254-0.0692 0.07559-0.13848 0.15116-0.25838 0.28333-0.53019 0.53353-0.26619 0.2554-0.54866 0.5009-0.23577 0.20079-0.50243 0.39885-0.26106 0.20325-0.5556 0.27204-0.10006 0.02118-0.17132-0.02926-0.0657-0.04525-0.0992-0.12806-0.0336-0.08281-0.0272-0.17524 0.0114-0.09293 0.0756-0.16801 0.0681-0.08695 0.17664-0.12619 0.11412-0.03405 0.20129-0.08268 0.12202-0.05776 0.23789-0.1264 0.12092-0.06913 0.23623-0.14345 0.35549-0.22964 0.67116-0.50132t0.60724-0.58118q-0.35064 0.01689-0.69189 0.13035-0.34181 0.10783-0.62254 0.31872-0.081 0.0595-0.14897 0.04317-0.0635-0.02253-0.0999-0.08211-0.0319-0.06576-0.0352-0.15152 2e-3 -0.08625 0.0564-0.15468 0.0586-0.08028 0.14519-0.13461 0.0861-0.06002 0.18391-0.10394 0.0978-0.04393 0.19734-0.07083 0.104-0.03306 0.18833-0.05847 0.25352-0.07054 0.55193-0.09954t0.59278 0.0055q0.40255-0.48096 0.76077-0.99778 0.36272-0.52299 0.71423-1.0564 0.031-0.04892 0.0654-0.11538 0.0395-0.06695 0.0845-0.12871 0.0445-0.06744 0.0963-0.11264 0.0563-0.05137 0.1164-0.06296 0.10566-0.01599 0.15552 0.07671 0.0544 0.08654 0.0446 0.1965-9e-3 0.11566-0.065 0.22437-0.0507 0.10822-0.0908 0.22114-0.048 0.13665-0.0904 0.27848-0.0379 0.13566-0.0802 0.27749-0.0871 0.31258-0.16399 0.62418-0.0769 0.3116-0.12187 0.6373-0.0216 0.14555-0.0376 0.2963-0.0115 0.14457-7e-3 0.29335z"/>
  <path d="m119.69 83.415q-0.17196 0.01671-0.3066-0.10791-0.23002-0.21291-0.13719-0.62361 0.0317-0.14653 0.0938-0.29602 0.0615-0.15517 0.12806-0.31083 0.0626-0.14381 0.12016-0.28711 0.057-0.14899 0.0814-0.26612 0.0294-0.11763 0.0109-0.15026-0.019-0.03832-0.0303-0.04871-0.0112-0.01037-0.0162-0.0099-6e-3 -0.0052-0.0303 0.0029-0.0742 0.02439-0.19466 0.1509-0.1154 0.12597-0.26977 0.37624-0.15438 0.25027-0.34607 0.64188-0.18719 0.38544-0.40498 0.92877-0.0327 0.08352-0.10133 0.11313-0.0737 0.03012-0.14382-9e-3 -0.0747-0.03291-0.10319-0.11621-0.033-0.07712-5e-3 -0.16014l0.72165-2.1359q0.0277-0.08302 0.0963-0.11264 0.0737-0.03012 0.14777-0.0029 0.12075 0.03417 0.15259 0.15158 0.0369 0.11691-8e-3 0.23601 0.16733-0.27448 0.36025-0.39078 0.19292-0.11628 0.3557-0.01739 0.0488 0.02968 0.0954 0.08827 0.046 0.05291 0.0745 0.13621 0.028 0.07761 0.0334 0.18612 5e-3 0.1085-0.0218 0.24886-0.0312 0.15222-0.0966 0.31925-0.066 0.16135-0.13708 0.32318-0.0327 0.08352-0.0779 0.19693-0.0457 0.10773-0.0813 0.21447-0.0361 0.10105-0.0486 0.18261-0.0125 0.08154 0.0211 0.11272 6e-3 0.0052 0.0112 0.01037 5e-3 -5.02e-4 0.0303-0.0029 0.0703-0.01255 0.16874-0.10247 0.10354-0.09039 0.21728-0.23343 0.11373-0.14303 0.22866-0.32634 0.11493-0.18332 0.21248-0.38789 0.0383-0.07831 0.0867-0.10596 0.0534-0.02815 0.086-0.0084 0.0371 0.01358 0.0477 0.06996 0.01 0.05068-0.0283 0.12899-0.0124 0.0299-0.053 0.13714-0.0406 0.10723-0.10324 0.25104-0.0626 0.14379-0.1483 0.3128-0.0812 0.16282-0.1848 0.30487-0.0986 0.14156-0.21617 0.2448-0.11199 0.10842-0.23734 0.13209-0.0146 0.0071-0.05 0.01059z"/>
  <path d="m120.88 83.294q-0.12644 0.01229-0.22862-0.0409-0.13923-0.0668-0.21879-0.20253-0.0852-0.14092-0.0984-0.329-0.0165-0.22219 0.0593-0.4935 0.0757-0.27132 0.21384-0.53148 0.13754-0.26585 0.32447-0.49633 0.19199-0.23097 0.40293-0.37197 0.23963-0.161 0.46833-0.17175 0.23376-0.01126 0.4257 0.12504 0.0713 0.05045 0.088 0.11769t-4e-3 0.11517q-0.0209 0.04793-0.0748 0.07039-0.0545 0.01675-0.12581-0.03368-0.20822-0.14617-0.49511 0.05384-0.1772 0.1205-0.3461 0.32628-0.16385 0.20528-0.29459 0.43604-0.12569 0.23026-0.2008 0.45562-0.0706 0.21917-0.0613 0.36746 4e-3 0.09712 0.0329 0.12878 0.0286 0.03164 0.0499 0.04105 0.0646 0.03389 0.17371-0.0513 0.1142-0.08569 0.24486-0.2648 0.13572-0.17959 0.27887-0.44025 0.14766-0.26683 0.27857-0.60089 8e-3 -0.02372 0.0118-0.03557 8e-3 -0.018 0.0169-0.03607 0.0327-0.08351 0.10133-0.11313 0.0737-0.03012 0.14888 0.0085 0.0752 0.0386 0.10375 0.1219 0.028 0.07761-5e-3 0.16112-0.0169 0.03607-0.0243 0.06547-0.10665 0.26858-0.15361 0.46824-0.0425 0.19349-0.05 0.3262-8e-3 0.12702 9e-3 0.19994 0.0167 0.06724 0.0381 0.07664 0.0269 0.01456 0.10906-0.03356 0.0866-0.05432 0.21727-0.23343 0.13176-0.16774 0.24954-0.37428 0.11723-0.21223 0.20742-0.3874 0.0293-0.06597 0.0738-0.08176 0.0489-0.02193 0.0865-0.0027 0.0371 0.01358 0.0471 0.06429 0.0145 0.04449-0.0148 0.11046-0.035 0.06077-0.079 0.18556-0.0446 0.1191-0.10665 0.26858-0.0621 0.14948-0.13818 0.31181-0.0767 0.15664-0.16568 0.29153-0.0896 0.1292-0.1987 0.21441-0.10354 0.0904-0.22492 0.10219-0.10115 0.0098-0.22467-0.05278-0.032-0.01407-0.0735-0.07319-0.0359-0.05389-0.0695-0.1367t-0.0542-0.18983q-0.0161-0.1132-4e-3 -0.2464-0.0491 0.12527-0.12237 0.26437-0.0738 0.13341-0.16954 0.25174-0.0957 0.11833-0.20542 0.19785-0.10915 0.08522-0.23053 0.09701z"/>
  <path d="m124.7 80.455q0.0161 0.1132-0.0335 0.18114-0.0445 0.06744-0.12377 0.09235-0.0742 0.02439-0.1624 0.01005-0.0882-0.01439-0.16002-0.07052-0.0673-0.06232-0.10254-0.16218-0.0358-0.10555 9.7e-4 -0.25258 0.0543-0.22907 0.2158-0.35378 0.16597-0.1309 0.37453-0.19133 0.208-0.06612 0.42604-0.08157 0.22254-0.02163 0.39616-0.02132 0.27027-0.0033 0.57365 0.01884 0.30283 0.01648 0.60345 0.01022 0.30006-0.01198 0.58449-0.07976 0.28443-0.06781 0.5224-0.24586 0.0428-0.03285 0.09-0.07186 0.0523-0.03951 0.10123-0.06149 0.054-0.02243 0.10621-0.01032 0.0517 0.0064 0.10328 0.06457 0.0746 0.08457 0.0491 0.19033-0.026 0.10006-0.0857 0.16899-0.0642 0.0751-0.1508 0.12941-0.0821 0.04815-0.1749 0.09161-0.0933 0.03777-0.18722 0.06985-0.0944 0.02636-0.18382 0.05228-0.17877 0.05179-0.35579 0.069-0.0389 0.07264-0.0755 0.11636-0.1599 0.19342-0.32596 0.37597-0.16661 0.17685-0.32035 0.38116-0.29901 0.39056-0.55369 0.81698-0.25523 0.42074-0.42292 0.90183-0.0435 0.13046-0.0819 0.26044-0.0334 0.12948-0.0611 0.26416-0.0176 0.08203-0.0273 0.19201-0.01 0.10997-0.0593 0.17791-0.049 0.07362-0.13553 0.07629-0.0809 0.0079-0.13924-0.06679-0.0471-0.06429-0.0503-0.15005 2e-3 -0.08056 0.01-0.16162 0.0474-0.45792 0.21049-0.88118 0.16254-0.42894 0.38964-0.824 0.2316-0.40123 0.50809-0.76091 0.28154-0.36018 0.56639-0.68624-0.1944-0.0041-0.39442-0.01332-0.20056-0.01493-0.39947-0.01283-0.19947-0.0036-0.39727 0.0099-0.19275 0.013-0.37152 0.0648-0.15402 0.04366-0.23733 0.13209-0.0833 0.08842-0.0583 0.24093z"/>
  <path d="m128.05 82.597q-0.18714 0.01818-0.33475-0.08224-0.206-0.12343-0.27188-0.38099-0.0659-0.25756 0.0123-0.60944 0.0527-0.24612 0.17108-0.49863 0.11786-0.2582 0.27611-0.46867 0.31703-0.41527 0.65765-0.4828 5e-3 -5.03e-4 4e-3 -0.0062 0.0788-0.08227 0.17821-0.05749 0.28251 0.07008 0.39666 0.35165 0.11118 0.04085 0.22973 0.05227 0.12358 0.01095 0.23936-0.0061 0.11578-0.01698 0.21417-0.05523 0.10345-0.03875 0.16874-0.10247 0.0467-0.04471 0.0883-0.03727 0.0466 0.0069 0.0657 0.04525 0.0185 0.03263 9e-3 0.09096-5e-3 0.05215-0.0519 0.09686-0.0979 0.09559-0.22445 0.15954-0.12203 0.05776-0.25132 0.09329-0.12929 0.03552-0.25574 0.04781-0.12644 0.01229-0.23431 0.0056-9.8e-4 0.25258-0.0587 0.49919-0.0527 0.24612-0.1435 0.46726-0.0914 0.21545-0.21192 0.39358-0.12055 0.17812-0.25277 0.28852-0.20762 0.17511-0.42005 0.19576zm0.5459-2.2106q-0.11017 0.02216-0.23062 0.14865-0.11595 0.1203-0.22131 0.29694t-0.1917 0.39161q-0.0813 0.21447-0.12318 0.41364-0.0118 0.03557-0.0255 0.10576-9e-3 0.06969-0.0109 0.15026 2e-3 0.0744 0.0194 0.1473 0.0218 0.06675 0.0762 0.10162 0.14651 0.08905 0.34907-0.08557 0.12773-0.10423 0.2387-0.27568 0.11042-0.17713 0.19391-0.36887 0.0829-0.19742 0.12539-0.3909 0.0475-0.19398 0.0326-0.34746-0.0601-0.04007-0.12794-0.10806-0.0679-0.06801-0.1042-0.17924z"/>
  <path d="m131.63 82.272q-0.17703 0.0172-0.31167-0.10742-0.23002-0.21291-0.13378-0.64115 0.0312-0.15222 0.0927-0.30739 0.061-0.16086 0.12751-0.31652 0.16245-0.37729 0.20777-0.59401 0.0448-0.2224-0.0502-0.2017-0.0899 0.02019-0.20763 0.17511-0.11769 0.15489-0.25974 0.42691-0.13699 0.27153-0.28822 0.65921-0.14617 0.38719-0.28801 0.8715-0.0277 0.08301-0.10078 0.11882-0.0675 0.04098-0.14216 0.0081-0.0741-0.02722-0.11276-0.10954-0.033-0.07712-5e-3 -0.16014 0.0763-0.26563 0.18808-0.58636 0.11123-0.32641 0.24886-0.64391 0.0807-0.22016 0.10405-0.40031 0.0279-0.18633-0.0479-0.23061-0.0651-0.03958-0.17647 0.02288-0.10685 0.05629-0.25837 0.28333-0.14702 0.22086-0.33485 0.65226-0.18277 0.43091-0.40533 1.1354-0.0198 0.0593-0.0625 0.09215-0.0422 0.03852-0.0978 0.04393-0.0455 0.0044-0.0831-0.01488-0.0752-0.0386-0.1088-0.12141-0.0381-0.07664-5e-3 -0.16014l0.72165-2.1359q0.0277-0.08303 0.0957-0.11833 0.0731-0.0358 0.14832 0.0028 0.0696 0.0334 0.0909 0.09445 0.0207 0.05537 0.0211 0.16435 0.0485-0.07932 0.1188-0.14353 0.0748-0.07039 0.15752-0.11284 0.0827-0.04246 0.16865-0.05081 0.086-0.0084 0.16066 0.02456 0.12856 0.06212 0.20022 0.22155 0.0901-0.12353 0.18914-0.20774 0.0985-0.0899 0.19687-0.12816 0.21141-0.08366 0.40279 0.04693 0.0488 0.02968 0.0898 0.0831 0.046 0.05291 0.0739 0.13052 0.033 0.07712 0.0379 0.17994 0.01 0.10232-0.0173 0.24268-0.0267 0.14604-0.0926 0.30739-0.061 0.16086-0.12696 0.3222-0.0626 0.14379-0.12015 0.28711-0.0525 0.14281-0.0819 0.26044-0.0107 0.04695-0.0198 0.11096-5e-3 0.05782 0.0234 0.0838 7e-3 0.01653 0.0421 0.01309 0.0753-0.01305 0.17885-0.10345 0.10298-0.09608 0.21672-0.23911 0.11825-0.1492 0.23317-0.33252 0.11944-0.18949 0.21699-0.39407 0.0338-0.07215 0.0777-0.09362 0.0489-0.02193 0.0865-0.0027 0.0371 0.01358 0.0471 0.06429 0.0145 0.0445-0.0193 0.11664-0.0175 0.03039-0.0581 0.13763-0.0406 0.10723-0.10775 0.25721-0.0621 0.14948-0.14775 0.31848-0.0812 0.16283-0.18425 0.31055-0.10363 0.14205-0.22123 0.24529-0.11705 0.10891-0.24239 0.13258-0.0101 9.79e-4 -0.0253 0.0025-0.01 0.0067-0.0197 0.0076z"/>
  <path d="m133.06 82.116q-0.29335 0.02851-0.46-0.11024-0.15037-0.12884-0.204-0.31299-0.0587-0.18366-0.0482-0.39125 0.01-0.21328 0.0709-0.42578 0.061-0.21251 0.15013-0.39905 0.10544-0.2283 0.24962-0.42593 0.14868-0.20381 0.31465-0.3347 0.16542-0.13657 0.33518-0.17602 0.17425-0.04563 0.33538 0.03627 0.13417 0.06729 0.20868 0.20351 0.074 0.13054 0.0703 0.30303 3e-3 0.13742-0.0398 0.27356-0.0429 0.13615-0.11786 0.2582-0.0699 0.12156-0.17286 0.21763-0.10298 0.09608-0.22501 0.15385-0.054 0.02243-0.13325 0.04737-0.0748 0.01872-0.16635 0.02189-0.0921-0.0025-0.19717-0.03249-0.10052-0.03614-0.21502-0.11109-0.0395 0.11861-0.0639 0.23574-0.0198 0.11096-0.0206 0.20857-7.1e-4 0.09761 0.0228 0.18141 0.0229 0.0781 0.0734 0.12485 0.11781 0.10905 0.3078 0.06763 0.18943-0.0471 0.39927-0.19946 0.20928-0.15804 0.41534-0.40187 0.20606-0.24381 0.36162-0.53436 0.0383-0.07832 0.0873-0.1003 0.0534-0.02815 0.086-0.0084 0.0371 0.01358 0.0476 0.06996 0.0101 0.05068-0.0334 0.12948-0.31848 0.6105-0.66017 0.98226-0.33717 0.36558-0.65756 0.43114-0.0298 0.0086-0.0601 0.01157-0.0303 0.0029-0.0607 0.0059zm-0.0726-1.5882q0.18798 0.14814 0.38367 0.06025 0.11751-0.05159 0.19916-0.15706 0.0811-0.11117 0.12118-0.22409 0.0451-0.11342 0.0414-0.20486 1e-3 -0.09194-0.0526-0.12112-0.0488-0.02968-0.13712 0.0076-0.0832 0.03678-0.1817 0.12668-0.099 0.08421-0.19815 0.22009-0.0997 0.13018-0.17579 0.29252zm0.35939-1.5555q0.12828-0.09854 0.27283-0.18718 0.14905-0.09481 0.26997-0.16394 0.12543-0.07531 0.20754-0.12345 0.0821-0.04815 0.0922-0.04913 0.0742-0.02439 0.14493 0.02034 0.0702 0.03909 0.0942 0.12856 0.0234 0.0838-0.0149 0.16211-0.0333 0.07784-0.10749 0.10227 0 0-0.0838 0.0311-0.0793 0.02488-0.19679 0.0765-0.11751 0.05159-0.25922 0.11701-0.1417 0.06542-0.26152 0.14591-0.0765 0.05334-0.1394 0.0365-0.0579-0.01734-0.0831-0.06654t-0.0161-0.1132q0.0142-0.06449 0.0805-0.11686z"/>
 </g>
</svg>
